<svg xmlns="http://www.w3.org/2000/svg" viewBox="0 0 200 200">
  <defs>
    <linearGradient id="bgGrad" x1="0%" y1="0%" x2="100%" y2="100%">
      <stop offset="0%" style="stop-color:#1e40af;stop-opacity:1" />
      <stop offset="100%" style="stop-color:#3b82f6;stop-opacity:1" />
    </linearGradient>
    <linearGradient id="lGrad" x1="0%" y1="0%" x2="0%" y2="100%">
      <stop offset="0%" style="stop-color:#60a5fa;stop-opacity:1" />
      <stop offset="100%" style="stop-color:#1e40af;stop-opacity:1" />
    </linearGradient>
  </defs>
  
  <!-- Background Circle -->
  <circle cx="100" cy="100" r="95" fill="white"/>
  <circle cx="100" cy="100" r="90" fill="none" stroke="url(#bgGrad)" stroke-width="3"/>
  
  <!-- L Letter (Blue gradient) -->
  <path d="M 50 50 L 50 130 L 90 130 L 90 120 L 62 120 L 62 50 Z" fill="url(#lGrad)"/>
  
  <!-- Data chart on L -->
  <rect x="54" y="105" width="4" height="8" fill="#60a5fa" opacity="0.8"/>
  <rect x="60" y="100" width="4" height="13" fill="#60a5fa" opacity="0.8"/>
  <rect x="66" y="95" width="4" height="18" fill="#60a5fa" opacity="0.8"/>
  <rect x="72" y="90" width="4" height="23" fill="#60a5fa" opacity="0.8"/>
  
  <!-- S Letter (Silver/Gray) -->
  <path d="M 110 70 Q 95 70 95 80 Q 95 90 110 90 L 130 90 Q 145 90 145 100 Q 145 110 130 110 L 110 110 Q 100 110 100 115 L 100 120 Q 100 130 110 130 L 135 130 Q 150 130 150 115 Q 150 100 135 100 L 115 100 Q 100 100 100 85 Q 100 70 115 70 L 135 70 Q 145 70 145 75 L 145 80 Q 145 85 140 85 L 115 85 Q 110 85 110 80 Z" fill="#94a3b8"/>
  
  <!-- Code brackets </> -->
  <text x="120" y="75" font-family="monospace" font-size="16" fill="#3b82f6" font-weight="bold">&lt;/&gt;</text>
</svg>
